# xmcd
#
# Track frame offsets:
#  150
#  123162
#  202007
#  275055
#  280420
#  286437
#
# Disc length: 4082 seconds
#
# Revision: 0
# Processed by: cddbd v1.5.2PL0 Copyright (c) Steve Scherf et al.
# Submitted via: AltoMP3_Maker 3.0
#
DISCID=630ff006
DTITLE=Stevie Ray Vaughan - Album Network - In The Studio - The Best Of Stevie Ray Vaughan Part 1
DYEAR=1900
DGENRE=
TTITLE0=Part 1 Segment 1 of 6
TTITLE1=Part 1 Segment 2 of 6
TTITLE2=Part 1 Segment 3 of 6
TTITLE3=Part 1 Segment 4 of 6
TTITLE4=Part 1 Segment 5 of 6
TTITLE5=Part 1 Segment 6 of 6
EXTD=
EXTT0=
EXTT1=
EXTT2=
EXTT3=
EXTT4=
EXTT5=
PLAYORDER=
